<svg width="46" height="24" viewBox="0 0 46 24" fill="none" xmlns="http://www.w3.org/2000/svg">
<path fill-rule="evenodd" clip-rule="evenodd" d="M11.7362 15.8119C11.5238 10.4837 14.674 10.4638 17.3658 8.80194C18.065 8.37041 18.7322 7.97392 18.9288 7.21845C19.0664 6.68923 19.2488 4.82995 19.2244 4.26225C19.1247 1.93511 17.3904 0.787022 16.3277 2.77119C15.9377 3.49893 15.7847 4.55244 15.2257 4.86929C14.0974 5.50846 13.6089 4.41626 12.77 4.57608C12.079 4.70775 11.1893 5.40367 10.958 5.88937C10.6701 6.49383 10.6668 7.75047 10.4027 8.49348C10.095 9.35922 5.58816 15.1622 11.7362 15.8119Z" fill="#D48A59"/>
<path fill-rule="evenodd" clip-rule="evenodd" d="M18.4016 21.663C18.083 20.0994 16.8085 18.469 17.6669 15.2814C17.9642 14.1772 18.3561 13.5851 18.8359 12.7842C19.1119 12.3236 19.2055 12.0673 19.5533 11.6681C19.8938 11.277 20.1157 11.0753 20.3703 10.7591C19.9844 10.2531 19.5036 9.46509 19.3456 8.66309C18.7597 8.90524 18.6834 9.10525 18.1478 9.4365C17.0854 10.0934 15.6736 10.5992 14.7387 11.1752C11.2496 13.3248 13.1634 17.1932 13.1677 17.2533C13.2183 17.9416 12.9173 17.7281 13.0577 18.6696C13.3006 20.2979 14.7368 22.5435 15.9799 22.5682C16.4171 22.577 17.7911 21.8073 18.4017 21.663H18.4016Z" fill="#DE996A"/>
<path fill-rule="evenodd" clip-rule="evenodd" d="M29.8833 5.73145C29.2812 5.96596 29.0366 6.31033 28.3502 6.66361C27.8395 6.92672 27.3241 7.03312 26.8028 7.2656C25.7596 7.73066 25.1584 8.50956 24.8803 9.87454C25.6719 10.3989 26.2557 11.6603 25.2872 12.5713C24.7838 13.0448 24.5712 12.7361 24.2535 13.5328C24.0911 13.9403 23.968 14.7715 23.9504 15.2466C23.9041 16.4911 24.231 17.574 24.5989 18.6258C25.1374 20.1658 25.4533 19.6965 27.2869 19.8714C27.5469 16.9816 27.9839 12.4446 31.3777 11.6648C31.1808 10.6893 30.7387 9.79748 30.4632 8.73322C30.2036 7.73077 30.0791 6.69779 29.8835 5.73155L29.8833 5.73145Z" fill="#D48A59"/>
<path fill-rule="evenodd" clip-rule="evenodd" d="M8.2971 15.2526C6.78412 12.5342 7.75261 11.4408 9.0199 9.13112C10.4704 6.48746 9.07536 4.81907 12.1837 3.8294C11.2042 1.70282 6.75177 4.17022 5.47095 5.73823C4.5821 6.82645 5.60798 7.30076 4.55469 8.32535C2.77269 10.059 4.44753 13.926 6.03553 15.3926C6.66203 15.9712 7.44157 15.7864 8.297 15.2526H8.2971Z" fill="#D48A59"/>
<path fill-rule="evenodd" clip-rule="evenodd" d="M23.9961 19.7453C23.8294 18.7467 23.2531 17.8701 23.0667 16.4732C22.9055 15.2639 23.1166 14.181 23.3903 13.0886C23.2912 12.9906 20.9587 11.566 20.8812 11.5303C20.0353 12.7034 18.995 13.8339 18.5159 15.7786C18.1088 17.4316 18.4719 19.9387 19.3108 21.1286C20.7707 20.5268 22.3429 20.2865 23.996 19.7453H23.9961Z" fill="#DE996A"/>
<path fill-rule="evenodd" clip-rule="evenodd" d="M38.2775 0.266196C38.349 0.589385 38.4283 0.523823 38.1189 0.523823C36.9611 2.04734 35.8859 3.75786 35.184 5.98751C34.6054 7.8254 33.9243 11.7233 34.7963 13.4416L35.9907 9.15847C36.2559 8.18073 36.1037 8.09636 36.9925 8.08636C37.3049 9.00499 35.9508 12.4671 35.6735 13.7435C36.8491 12.9022 38.113 10.2982 38.6627 8.33195C39.3171 5.9916 39.3008 3.32784 38.8887 0.891294L38.7734 0.265659C38.6464 -0.116536 38.8389 0.150334 38.3969 0.0543553L38.2774 0.266304L38.2775 0.266196Z" fill="#D48A59"/>
<path fill-rule="evenodd" clip-rule="evenodd" d="M30.6258 21.5072C31.3293 19.5103 31.9564 18.4349 33.5144 17.3058C34.1727 16.8287 34.445 16.9193 35.0665 16.5837C34.5483 15.9808 33.8488 15.4092 33.2474 14.632L31.792 12.46C28.7715 13.5853 28.1136 17.3598 28.2881 20.2469C29.3701 20.6185 29.8503 21.0561 30.6258 21.5072Z" fill="#DE996A"/>
<path fill-rule="evenodd" clip-rule="evenodd" d="M31.4177 22.3245C32.6347 23.1562 33.8136 23.6646 35.4497 22.5663C37.6325 21.1013 37.4134 17.0573 35.2569 17.5642C33.1663 18.0557 31.6815 20.2592 31.4177 22.3245Z" fill="#D48A59"/>
<path fill-rule="evenodd" clip-rule="evenodd" d="M23.9707 9.18174C24.3537 8.73635 24.4215 8.13823 24.8164 7.61964C25.1441 7.18908 25.5493 6.85815 26.1095 6.56602C27.2077 5.99338 28.4664 5.70318 29.1602 4.96362C29.5799 4.51629 30.0409 2.91475 28.6351 2.78384C26.6203 2.59586 25.3801 3.83746 24.4217 4.38356C24.9356 7.99195 22.9896 5.8198 21.7378 6.87352C20.1064 8.24667 22.9922 8.86199 23.9708 9.18174H23.9707Z" fill="#DE996A"/>
<path fill-rule="evenodd" clip-rule="evenodd" d="M35.7379 15.2756C37.9204 15.632 39.9402 15.4974 41.8555 14.6629C43.192 14.0808 45.3597 12.6341 45.9291 11.7739C43.9166 11.5552 41.5875 11.8928 39.8583 12.5001C38.3586 13.0267 36.1479 14.2995 35.7378 15.2757L35.7379 15.2756Z" fill="#DE996A"/>
<path fill-rule="evenodd" clip-rule="evenodd" d="M2.90219 9.52539C-1.90835 13.1268 2.44594 18.061 5.48652 16.2513C4.8237 15.2859 4.20021 14.9833 3.5994 13.4936C3.0001 12.0077 3.01859 11.2285 2.90219 9.52539Z" fill="#DE996A"/>
<path fill-rule="evenodd" clip-rule="evenodd" d="M11.9884 18.6924C8.27709 20.0387 12.0639 25.2164 14.792 23.0741C14.0448 22.364 13.6111 22.1708 13.0238 21.2016C12.6344 20.5585 12.4008 19.3453 11.9883 18.6925L11.9884 18.6924Z" fill="#DE996A"/>
<path fill-rule="evenodd" clip-rule="evenodd" d="M27.5189 1.94725C27.8225 1.79947 27.6356 1.90093 27.9701 1.83193C28.0228 1.82107 28.2159 1.80022 28.2685 1.78464C28.6972 1.65803 28.3241 1.82655 28.6308 1.60085L28.2091 1.19329C27.9774 1.21446 28.0426 1.25982 28.0594 1.01208L27.8661 0.87601C27.58 0.901483 27.6574 0.962961 27.6574 0.666534C25.8083 -1.12192 23.0567 0.969624 23.8588 3.61844C24.38 3.40843 24.7729 2.93853 25.4599 2.59406C26.0153 2.31558 26.7118 2.03635 27.5188 1.94747L27.5189 1.94725Z" fill="#D48A59"/>
<path fill-rule="evenodd" clip-rule="evenodd" d="M4.7322 5.22088C8.13702 1.95148 7.04729 3.4176 10.292 2.10603C9.23062 1.24351 7.59576 0.935048 6.3102 1.75737C5.28894 2.41063 4.21748 3.4522 4.7322 5.22088Z" fill="#DE915D"/>
</svg>
