<?xml version="1.0" standalone="no"?>
<!DOCTYPE svg PUBLIC "-//W3C//DTD SVG 20010904//EN"
 "http://www.w3.org/TR/2001/REC-SVG-20010904/DTD/svg10.dtd">
<svg version="1.0" xmlns="http://www.w3.org/2000/svg"
 width="1080.000000pt" height="1080.000000pt" viewBox="0 0 1080.000000 1080.000000"
 preserveAspectRatio="xMidYMid meet">

<g transform="translate(0.000000,1080.000000) scale(0.100000,-0.100000)"
fill="#000000" stroke="none">
<path d="M4735 9095 c-46 -16 -257 -71 -330 -86 -27 -6 -54 -14 -60 -19 -5 -4
-30 -10 -55 -14 -64 -10 -130 -36 -130 -53 0 -16 28 -73 36 -73 3 0 14 5 25
10 10 6 45 15 76 21 32 6 63 14 68 19 6 4 31 10 57 13 26 4 56 11 65 15 38 20
193 54 193 43 -1 -16 -28 -83 -38 -93 -7 -7 -12 -16 -12 -21 0 -5 -22 -56 -50
-114 -27 -58 -50 -107 -50 -110 0 -3 -9 -24 -19 -47 -11 -23 -35 -75 -54 -116
-95 -202 -107 -233 -107 -277 0 -54 15 -62 73 -39 24 9 53 16 66 16 13 0 37 6
54 14 18 7 55 18 82 24 112 24 186 42 202 51 10 5 41 13 68 19 63 13 125 29
130 34 2 2 -1 23 -7 46 -12 47 -20 49 -83 27 -22 -8 -47 -15 -56 -15 -9 0 -39
-6 -65 -14 -80 -24 -186 -53 -239 -66 -27 -7 -58 -14 -67 -17 -11 -3 -18 0
-18 8 0 13 79 191 166 377 19 40 34 76 34 79 0 4 9 25 19 47 112 236 118 253
105 304 -7 25 -22 26 -79 7z"/>
<path d="M5211 8919 c-72 -34 -126 -85 -159 -153 -18 -35 -22 -61 -22 -140 0
-83 4 -104 25 -145 23 -47 118 -141 141 -141 6 0 25 -7 42 -16 39 -19 185 -15
246 7 46 16 134 98 161 149 12 24 19 65 23 131 3 81 1 103 -16 140 -28 63 -94
133 -154 163 -45 23 -64 26 -147 26 -75 -1 -105 -5 -140 -21z m227 -84 c82
-35 132 -117 132 -218 0 -35 -5 -68 -11 -74 -5 -5 -18 -25 -27 -44 -9 -19 -39
-48 -67 -66 -43 -28 -59 -33 -113 -33 -130 0 -222 93 -222 224 0 40 7 74 21
103 23 47 89 109 123 116 50 10 129 6 164 -8z"/>
<path d="M5886 8902 c-3 -5 -8 -29 -12 -53 -3 -24 -12 -63 -20 -87 -8 -23 -14
-57 -14 -75 0 -18 -4 -37 -9 -42 -8 -9 -31 -101 -53 -220 -5 -27 -14 -63 -19
-80 -11 -37 -4 -43 51 -47 40 -3 45 -1 51 22 10 34 29 112 44 185 29 130 37
153 66 189 82 98 221 100 304 3 33 -38 35 -45 35 -108 0 -37 -4 -70 -9 -74 -6
-3 -12 -27 -16 -53 -3 -26 -12 -67 -20 -92 -7 -25 -16 -63 -20 -85 -3 -22 -8
-48 -11 -57 -6 -19 25 -42 68 -52 23 -5 28 -3 32 16 16 76 50 220 62 264 22
74 21 237 -1 272 -47 74 -86 98 -190 119 -58 12 -79 13 -125 2 -30 -7 -62 -18
-71 -26 -28 -23 -37 -15 -32 31 5 39 3 44 -18 49 -34 9 -67 8 -73 -1z"/>
<path d="M6725 8604 c-44 -11 -131 -81 -167 -134 -96 -143 -77 -296 51 -418
44 -42 118 -79 178 -89 49 -9 147 -3 158 9 4 4 4 25 0 47 -6 39 -8 41 -33 34
-116 -33 -275 56 -302 167 -14 60 -6 120 17 120 8 0 110 -47 226 -105 115 -58
215 -104 222 -101 50 19 68 223 27 303 -30 57 -82 107 -145 140 -41 21 -68 27
-132 29 -44 1 -89 0 -100 -2z m208 -116 c61 -31 97 -98 97 -180 0 -31 -5 -60
-10 -63 -10 -6 -355 160 -365 175 -8 12 67 80 99 90 47 14 127 5 179 -22z"/>
<path d="M3726 8517 c-22 -22 -22 -27 -14 -97 5 -41 15 -98 23 -127 8 -28 15
-69 15 -90 0 -22 6 -62 14 -89 16 -56 28 -154 19 -154 -3 0 -42 24 -87 53 -45
28 -89 57 -98 62 -20 12 -175 116 -233 155 l-41 28 -38 -26 c-22 -15 -41 -31
-42 -37 -2 -5 29 -30 69 -54 71 -44 150 -95 378 -244 124 -81 129 -88 129
-174 0 -68 -66 -133 -135 -133 -35 0 -35 0 -35 -45 l0 -45 38 0 c68 0 160 57
202 126 16 25 20 49 20 115 0 46 -5 102 -11 124 -6 22 -15 76 -20 120 -5 44
-13 93 -18 110 -5 16 -12 57 -16 90 -3 33 -12 85 -20 115 -7 30 -16 85 -19
123 -11 117 -32 142 -80 94z"/>
<path d="M3068 8043 l-58 -58 -49 49 -49 48 -37 -34 -38 -34 46 -49 46 -48
-20 -29 c-11 -15 -25 -28 -30 -28 -20 0 -8 -50 16 -66 25 -17 27 -16 59 15 42
41 39 43 176 -107 141 -154 166 -172 245 -172 53 0 68 4 102 29 49 35 89 86
98 123 6 24 3 29 -20 38 -28 11 -65 -1 -65 -21 0 -6 -15 -23 -32 -40 -24 -21
-43 -29 -69 -29 -33 0 -47 11 -175 141 -77 77 -141 142 -143 144 -2 3 27 33
65 69 l69 64 -24 26 c-14 14 -32 26 -40 26 -9 0 -42 -26 -73 -57z"/>
<path d="M7282 7730 c-44 -18 -54 -87 -16 -124 40 -41 124 0 124 59 0 35 -21
65 -45 65 -7 0 -19 2 -27 4 -7 3 -23 1 -36 -4z"/>
<path d="M2700 7651 l-20 -40 61 -43 c33 -24 83 -59 110 -78 27 -19 72 -51 98
-70 107 -76 120 -200 32 -304 -23 -26 -85 -56 -118 -56 -30 0 -135 49 -168 79
-11 10 -40 31 -65 47 -25 17 -69 47 -97 67 -64 45 -83 46 -111 7 -29 -38 -28
-44 11 -68 31 -19 76 -51 209 -146 98 -71 143 -89 218 -90 75 0 107 14 167 74
63 62 88 121 87 203 0 74 7 80 49 47 l26 -20 25 33 c39 50 43 43 -81 130 -29
20 -77 54 -105 74 -52 36 -105 73 -221 153 -32 22 -65 40 -72 40 -8 0 -24 -18
-35 -39z"/>
<path d="M8455 7437 c-33 -28 -110 -97 -171 -152 -61 -55 -151 -135 -200 -177
-49 -43 -118 -104 -153 -137 l-64 -59 23 -50 c13 -28 28 -53 35 -56 6 -2 33 0
61 4 27 5 123 11 214 14 91 4 183 11 205 16 51 12 205 13 205 1 0 -8 -32 -38
-170 -157 -30 -26 -100 -89 -155 -140 -55 -51 -117 -105 -137 -121 -49 -37
-53 -52 -27 -106 l22 -45 116 5 c64 3 157 9 206 14 50 5 167 14 260 19 174 11
270 25 280 40 3 5 -3 25 -12 45 -17 35 -19 36 -58 31 -22 -3 -128 -10 -235
-15 -107 -6 -219 -16 -249 -21 -72 -13 -194 -13 -186 0 3 6 39 38 78 72 83 71
153 134 252 227 39 36 94 84 122 106 70 55 75 65 59 112 l-13 38 -162 -1 c-88
0 -198 -6 -243 -12 -46 -7 -136 -13 -201 -15 l-118 -2 68 66 c37 36 102 94
143 129 70 59 177 154 277 246 l42 39 -21 48 c-12 26 -24 47 -27 47 -3 -1 -33
-24 -66 -53z"/>
<path d="M2325 6910 c-99 -31 -195 -204 -195 -349 0 -73 8 -83 56 -79 l39 3 2
80 c2 120 42 202 112 231 43 18 75 18 111 -1 33 -17 34 -8 -20 -145 -32 -79
-48 -177 -38 -227 24 -119 194 -161 287 -71 70 68 106 209 77 302 -9 30 -5 31
53 15 20 -6 46 71 29 86 -12 11 -56 29 -283 117 -107 41 -181 53 -230 38z
m295 -180 c42 -21 80 -88 80 -139 0 -38 -35 -125 -63 -155 -53 -57 -177 -18
-177 56 0 15 16 68 35 117 19 48 35 95 35 103 0 18 20 38 37 38 8 0 31 -9 53
-20z"/>
<path d="M2165 6253 c-119 -48 -195 -164 -195 -300 0 -49 22 -127 43 -151 6
-8 16 -23 22 -35 31 -63 197 -133 287 -122 102 12 205 82 249 167 30 59 52
184 40 232 -5 23 -12 52 -15 66 -3 14 -14 36 -25 49 -14 19 -24 22 -44 17 -37
-9 -42 -40 -17 -106 25 -68 25 -76 -1 -155 -27 -84 -77 -138 -141 -154 -71
-17 -70 -17 -65 42 9 104 29 243 38 272 5 17 13 67 16 113 l6 82 -79 -1 c-48
0 -95 -6 -119 -16z m106 -83 c5 0 7 -10 4 -22 -3 -13 -10 -59 -15 -103 -10
-82 -28 -212 -36 -252 -9 -48 -92 -7 -140 69 -43 68 -28 182 33 251 23 25 114
68 131 62 8 -3 18 -5 23 -5z"/>
<path d="M8717 6014 c-35 -23 -37 -27 -24 -42 46 -53 83 -184 67 -241 -14 -52
-46 -90 -93 -111 -63 -28 -73 -20 -86 73 -6 45 -11 104 -11 130 0 111 -86 208
-184 207 -17 -1 -51 -11 -76 -23 -117 -58 -136 -280 -32 -389 36 -38 35 -42
-13 -50 -16 -3 -21 -12 -23 -51 l-3 -47 38 1 c21 0 74 4 118 10 44 5 127 13
185 18 173 13 241 60 266 182 21 102 -13 258 -74 337 l-17 22 -38 -26z m-279
-100 c42 -12 65 -76 70 -200 l4 -111 -43 -6 c-57 -8 -105 15 -142 68 -24 35
-28 50 -28 113 -1 52 4 80 16 98 25 38 70 52 123 38z"/>
<path d="M2245 5543 c-39 -20 -85 -63 -85 -80 0 -7 -9 -27 -19 -44 l-19 -31
-23 23 c-49 50 -71 59 -150 59 -62 0 -82 -4 -109 -22 -46 -31 -81 -99 -87
-167 -7 -72 14 -359 31 -431 l13 -55 69 4 c38 2 92 7 119 12 28 5 115 14 195
19 79 6 158 14 175 19 16 5 79 12 139 15 59 3 110 7 112 8 6 6 -15 259 -31
378 -9 63 -23 135 -32 159 -18 50 -73 115 -114 137 -37 19 -146 18 -184 -3z
m150 -107 c62 -26 100 -146 109 -344 4 -98 3 -113 -12 -121 -9 -5 -72 -11
-139 -13 l-123 -5 -4 31 c-2 17 -10 69 -16 116 -7 47 -14 113 -17 146 -12 143
88 237 202 190z m-365 -83 c45 -31 59 -57 80 -148 15 -65 20 -115 18 -180 l-3
-90 -128 -10 c-71 -6 -131 -7 -133 -4 -9 16 -26 290 -20 331 8 50 36 95 70
108 35 14 90 11 116 -7z"/>
<path d="M8230 5271 c0 -27 4 -52 9 -55 5 -4 65 -9 133 -12 135 -6 240 -30
289 -65 37 -26 71 -95 78 -159 6 -45 6 -45 49 -48 l42 -3 0 43 c0 51 -23 121
-51 157 l-21 26 36 3 c39 3 56 27 56 77 0 21 -5 24 -62 29 -35 4 -90 11 -123
16 -33 6 -118 15 -190 21 -71 6 -156 13 -187 16 l-58 5 0 -51z"/>
<path d="M8233 4938 c-33 -37 -83 -133 -104 -200 -37 -124 -16 -240 53 -289
26 -19 46 -24 95 -24 58 0 65 2 97 35 19 19 58 80 86 135 28 55 63 110 76 123
45 40 103 21 124 -42 14 -45 -17 -160 -60 -218 -36 -51 -37 -58 -6 -87 29 -28
44 -22 81 33 51 76 68 133 69 236 1 112 -16 151 -80 187 -99 57 -198 7 -255
-127 -45 -108 -99 -180 -136 -180 -11 0 -31 13 -46 28 -21 22 -27 38 -27 74 0
64 35 152 88 222 l45 60 -32 28 c-38 34 -42 34 -68 6z"/>
<path d="M7939 4224 c-108 -218 -112 -227 -93 -241 53 -40 49 -42 119 97 36
71 65 135 65 142 1 7 12 26 25 43 l24 29 20 -46 c20 -46 38 -87 120 -263 26
-55 60 -128 76 -163 20 -43 39 -68 62 -82 l33 -19 111 222 110 222 -26 23
c-15 13 -32 21 -39 19 -6 -1 -33 -48 -60 -103 -27 -54 -52 -106 -57 -114 -4
-8 -18 -35 -30 -59 l-22 -44 -18 24 c-10 13 -19 28 -19 32 0 8 -22 57 -102
227 -22 47 -56 119 -76 160 -39 84 -67 120 -93 120 -13 0 -47 -60 -130 -226z"/>
<path d="M2730 4279 c-36 -17 -78 -36 -95 -43 -16 -7 -50 -22 -75 -33 -126
-57 -195 -51 -265 21 -22 22 -45 50 -50 60 -10 17 -15 18 -48 7 -44 -15 -48
-36 -16 -87 24 -40 64 -70 116 -88 l38 -13 -37 -19 c-30 -14 -38 -23 -38 -45
0 -64 31 -75 105 -39 22 11 43 19 47 20 3 0 41 16 85 36 43 20 96 44 118 54
22 11 80 36 130 58 49 21 93 45 98 53 11 17 -18 89 -36 88 -6 0 -41 -14 -77
-30z"/>
<path d="M2834 4023 c-3 -10 -10 -28 -15 -41 -7 -18 -5 -24 9 -28 31 -10 97
-47 118 -66 30 -26 75 -119 81 -166 8 -60 -41 -173 -74 -172 -5 0 -57 73 -117
161 -159 234 -163 239 -189 239 -24 0 -88 -61 -122 -115 -31 -51 -44 -134 -30
-202 7 -32 19 -72 28 -89 23 -44 107 -124 152 -145 52 -24 201 -27 231 -4 10
8 26 15 35 15 28 0 127 99 153 153 47 95 44 169 -9 282 -36 77 -88 131 -160
165 -73 35 -84 36 -91 13z m-136 -245 c21 -29 50 -71 65 -93 14 -22 46 -69 71
-105 25 -36 46 -70 46 -77 0 -18 -68 -36 -116 -30 -123 13 -213 153 -175 270
13 39 47 87 61 87 5 0 27 -24 48 -52z"/>
<path d="M7733 3851 c-76 -55 -125 -138 -133 -224 l-5 -59 -27 22 -28 21 -25
-28 c-43 -49 -43 -50 160 -208 156 -122 181 -135 259 -135 55 0 76 5 112 26
87 51 184 207 184 297 l0 48 -42 -3 c-41 -3 -43 -4 -50 -45 -10 -62 -45 -123
-100 -175 -43 -41 -56 -48 -90 -48 -40 0 -118 36 -118 55 0 6 25 42 56 80 76
94 102 137 121 196 22 66 6 120 -50 172 -39 36 -43 37 -112 37 -64 0 -77 -3
-112 -29z m168 -94 c29 -34 34 -65 14 -105 -20 -44 -144 -204 -153 -200 -4 2
-19 10 -33 17 -32 16 -69 82 -69 122 0 61 83 179 135 192 35 9 87 -4 106 -26z"/>
<path d="M3397 3615 c-46 -17 -129 -76 -157 -112 -11 -14 -60 -69 -109 -122
-49 -53 -115 -127 -147 -165 -33 -39 -69 -81 -81 -94 -29 -31 -29 -36 3 -61
34 -27 38 -26 80 5 l34 26 0 -26 c0 -146 191 -309 342 -293 74 8 136 37 186
88 130 132 124 312 -15 445 -43 40 -72 58 -119 74 -35 11 -74 20 -88 20 -20 0
-24 4 -19 17 10 25 51 59 101 84 69 34 138 23 206 -33 61 -49 121 -134 136
-190 11 -40 26 -46 78 -32 29 8 29 40 1 102 -53 116 -189 240 -293 267 -68 18
-89 18 -139 0z m30 -342 c59 -45 69 -56 93 -111 28 -61 25 -108 -10 -169 -30
-52 -57 -76 -119 -106 -43 -21 -61 -21 -124 1 -55 19 -140 93 -157 137 -6 14
-10 51 -10 82 0 69 32 130 92 173 36 27 49 30 114 30 68 0 75 -2 121 -37z"/>
<path d="M7261 3330 c-22 -17 -41 -34 -41 -39 0 -5 9 -40 20 -77 41 -142 49
-172 79 -288 17 -66 29 -121 28 -123 -2 -1 -50 28 -108 65 -57 38 -138 90
-179 116 -41 27 -87 57 -102 67 -36 25 -51 24 -88 -7 -28 -24 -31 -31 -25 -68
3 -23 12 -61 20 -86 13 -41 24 -81 70 -245 7 -27 23 -81 34 -120 11 -38 23
-85 26 -102 7 -37 27 -42 64 -17 27 19 26 35 -9 154 -11 41 -27 98 -35 125 -7
28 -23 82 -35 120 -27 85 -35 135 -23 135 4 0 31 -15 58 -33 28 -19 86 -57
130 -87 44 -29 113 -74 153 -101 78 -53 118 -61 145 -31 22 24 21 55 -2 133
-10 35 -26 93 -36 129 -9 36 -23 83 -30 105 -8 22 -17 56 -20 75 -4 19 -11 40
-15 45 -4 6 -7 18 -7 28 1 31 18 20 363 -215 39 -26 77 -48 85 -48 13 0 79 41
79 50 0 3 -15 15 -33 26 -17 12 -100 66 -183 120 -83 55 -158 104 -167 109 -8
6 -46 31 -84 56 -37 26 -73 49 -79 52 -6 4 -30 -7 -53 -23z"/>
<path d="M3739 2898 c-85 -169 -92 -189 -97 -254 -3 -54 0 -80 13 -107 18 -38
82 -107 99 -107 5 0 17 -6 25 -13 20 -17 115 -47 148 -47 13 0 33 5 44 11 11
5 28 9 39 7 17 -3 17 -6 5 -40 -12 -37 -12 -38 22 -58 27 -16 38 -18 49 -9 7
6 49 81 93 167 44 87 103 203 132 259 45 88 50 104 39 118 -16 19 -70 49 -76
42 -3 -2 -39 -71 -80 -153 -42 -82 -87 -164 -100 -182 -73 -96 -213 -94 -307
3 -33 34 -37 43 -37 93 0 55 30 124 139 325 38 71 40 100 6 115 -56 26 -59 22
-156 -170z"/>
<path d="M6442 2850 c-61 -22 -124 -69 -149 -111 -21 -35 -27 -36 -41 -4 -6
14 -19 25 -27 25 -20 0 -75 -28 -75 -38 0 -8 36 -103 49 -130 4 -9 21 -53 36
-97 48 -139 54 -155 82 -196 31 -47 91 -84 148 -93 44 -7 139 17 211 52 54 28
144 109 144 132 0 10 -12 27 -27 38 l-27 20 -62 -57 c-51 -46 -73 -59 -127
-74 -63 -16 -68 -16 -112 0 -38 15 -52 27 -71 63 -29 55 -30 54 96 99 49 18
92 37 95 42 4 5 14 9 24 9 29 0 99 77 112 122 22 84 -26 178 -108 209 -39 14
-113 10 -171 -11z m155 -105 c15 -17 23 -39 23 -65 0 -33 -6 -44 -41 -74 -23
-19 -55 -38 -73 -42 -17 -3 -42 -12 -56 -19 -24 -12 -91 -35 -102 -35 -14 0
-40 82 -34 110 24 123 213 207 283 125z"/>
<path d="M4516 2757 c-9 -12 -18 -39 -22 -58 -3 -18 -11 -50 -19 -69 -13 -34
-38 -114 -72 -230 -9 -30 -24 -81 -35 -113 -28 -89 -25 -104 22 -118 25 -8 44
-9 48 -3 5 5 19 43 31 84 13 41 30 94 37 118 8 23 14 49 14 57 0 8 7 29 14 47
8 18 25 67 36 108 12 41 28 92 36 113 20 53 18 64 -13 71 -16 4 -36 9 -45 12
-10 3 -23 -4 -32 -19z"/>
<path d="M4870 2661 c-65 -22 -118 -51 -124 -67 -12 -32 -29 -295 -20 -304 5
-5 28 -12 51 -16 l41 -6 6 78 c9 109 24 186 39 202 19 19 132 34 196 26 145
-17 244 -100 287 -243 18 -59 18 -82 -2 -162 -23 -93 -81 -165 -169 -208 -135
-67 -258 -48 -411 64 -19 14 -23 14 -47 -6 -37 -28 -34 -49 14 -89 54 -45 61
-49 137 -77 85 -30 231 -32 314 -4 149 51 250 170 279 327 34 184 -62 368
-237 455 -67 33 -73 34 -199 36 -71 1 -141 -2 -155 -6z"/>
<path d="M5661 2658 c-26 -14 -44 -61 -35 -91 8 -27 45 -57 70 -57 12 0 33 9
48 21 69 54 -5 167 -83 127z"/>
<path d="M4282 2032 c-19 -15 -23 -26 -20 -58 3 -33 8 -42 37 -56 30 -15 37
-15 61 -3 47 24 54 72 15 110 -28 29 -61 32 -93 7z"/>
</g>
</svg>
